<?xml version="1.0" standalone="no"?>
<!DOCTYPE svg PUBLIC "-//W3C//DTD SVG 20010904//EN"
 "http://www.w3.org/TR/2001/REC-SVG-20010904/DTD/svg10.dtd">
<svg version="1.0" xmlns="http://www.w3.org/2000/svg"
 width="830.000000pt" height="830.000000pt" viewBox="0 0 830.000000 830.000000"
 preserveAspectRatio="xMidYMid meet">

<g transform="translate(0.000000,830.000000) scale(0.100000,-0.100000)"
fill="#000000" stroke="none">
<path d="M4060 8055 c-30 -19 -60 -37 -65 -42 -6 -4 -28 -17 -50 -28 -22 -10
-59 -32 -82 -47 -23 -15 -44 -28 -47 -28 -4 0 -40 -20 -80 -45 -41 -25 -78
-45 -82 -45 -4 0 -15 -6 -23 -14 -9 -7 -43 -28 -76 -46 -33 -18 -67 -39 -76
-46 -8 -8 -19 -14 -24 -14 -4 0 -41 -20 -82 -45 -40 -25 -76 -45 -79 -45 -3 0
-24 -13 -47 -28 -23 -15 -60 -37 -82 -47 -22 -11 -42 -23 -45 -26 -3 -4 -29
-19 -58 -35 -29 -16 -61 -33 -70 -39 -9 -5 -44 -25 -77 -44 -33 -19 -62 -37
-65 -40 -3 -3 -23 -15 -45 -26 -22 -11 -42 -22 -45 -25 -3 -3 -16 -11 -30 -18
-14 -7 -38 -21 -55 -32 -16 -11 -37 -23 -45 -27 -8 -4 -59 -33 -113 -65 -54
-32 -101 -58 -104 -58 -3 0 -24 -13 -48 -29 -24 -16 -53 -32 -64 -36 -12 -3
-21 -10 -21 -13 0 -4 -20 -16 -45 -27 -25 -11 -45 -23 -45 -27 0 -3 -12 -11
-27 -17 -16 -6 -41 -20 -58 -30 -16 -11 -50 -30 -75 -43 -25 -13 -47 -26 -50
-29 -3 -4 -29 -19 -58 -35 -62 -34 -73 -40 -129 -77 -24 -15 -45 -27 -47 -27
-3 0 -39 -20 -79 -45 -41 -25 -78 -45 -82 -45 -5 0 -16 -6 -24 -14 -9 -7 -43
-28 -76 -46 -33 -18 -67 -39 -76 -46 -8 -8 -18 -14 -22 -14 -3 0 -40 -20 -80
-45 -41 -25 -78 -45 -82 -45 -5 0 -16 -6 -24 -14 -9 -7 -43 -28 -76 -46 -33
-18 -67 -38 -75 -44 -8 -7 -33 -21 -55 -31 -22 -11 -42 -23 -45 -27 -3 -4 -17
-12 -30 -17 -26 -11 -33 -16 -108 -63 -24 -16 -47 -28 -52 -28 -5 0 -12 -10
-14 -22 -3 -13 -7 -481 -9 -1040 l-4 -1017 38 -46 c46 -56 41 -81 -7 -34 l-33
32 -1 -911 0 -911 22 -12 c13 -7 25 -15 28 -18 3 -3 23 -15 45 -26 22 -11 42
-23 45 -26 3 -4 28 -19 55 -33 28 -15 64 -36 80 -46 17 -10 50 -29 75 -42 25
-12 52 -27 60 -34 8 -6 42 -26 75 -44 33 -18 67 -39 76 -46 8 -8 19 -14 22
-14 4 0 35 -17 69 -38 35 -20 81 -44 103 -51 22 -8 49 -23 60 -35 25 -26 68
-50 117 -65 20 -7 39 -19 42 -27 3 -8 16 -19 28 -24 13 -6 37 -19 53 -30 17
-11 37 -23 45 -27 8 -4 48 -26 88 -50 40 -24 77 -43 82 -43 6 0 10 -4 10 -8 0
-4 12 -13 28 -19 15 -7 34 -17 42 -22 33 -23 168 -101 173 -101 3 0 26 -13 50
-30 25 -16 47 -30 50 -30 5 0 181 -101 227 -130 8 -5 38 -21 65 -36 28 -15 52
-29 55 -33 3 -3 23 -15 45 -26 22 -11 42 -22 45 -25 3 -3 16 -11 30 -18 14 -7
39 -21 55 -32 40 -27 68 -39 78 -33 4 2 7 176 7 387 l0 382 -27 20 c-16 11
-46 28 -68 39 -22 11 -46 26 -53 33 -7 6 -17 12 -22 12 -5 0 -15 6 -22 13 -7
6 -31 21 -53 32 -22 11 -42 22 -45 26 -5 5 -81 48 -170 95 -19 11 -36 22 -38
27 -2 4 -9 7 -16 7 -8 0 -24 8 -37 18 -13 11 -46 31 -74 46 -44 25 -142 81
-185 106 -8 5 -35 20 -60 32 -25 13 -51 29 -58 35 -7 7 -17 13 -22 13 -5 0
-15 6 -22 12 -7 7 -31 22 -53 33 -22 11 -58 31 -80 44 -53 34 -114 69 -145 84
-14 6 -31 17 -38 24 -7 7 -18 13 -24 13 -6 0 -19 6 -27 14 -9 7 -43 28 -76 46
-33 18 -77 44 -98 57 l-37 23 0 1574 0 1574 43 25 c23 14 69 40 102 58 33 18
62 35 65 38 3 4 23 15 45 26 22 11 42 23 45 26 5 5 81 48 170 95 19 11 37 22
40 26 3 4 17 12 30 18 14 5 39 19 55 30 17 11 37 23 45 27 18 8 158 89 180
103 8 6 22 13 30 17 8 4 59 33 112 65 53 32 100 58 103 58 3 0 24 12 48 27 23
15 62 38 87 51 74 41 94 52 125 72 17 11 41 25 55 32 14 7 27 15 30 18 3 3 21
13 40 24 59 31 104 56 135 76 17 10 50 29 75 41 25 13 47 25 50 29 6 6 129 80
135 80 2 0 49 27 105 60 56 33 103 60 105 60 5 0 129 73 135 80 3 3 25 15 50
28 25 13 59 32 75 42 17 10 52 31 79 45 82 45 91 50 96 56 6 7 54 34 93 51 15
7 27 16 27 20 0 4 8 8 18 8 10 0 37 14 60 31 41 30 42 30 72 13 16 -10 30 -21
30 -25 0 -4 12 -12 28 -19 74 -31 72 -28 72 -112 0 -52 4 -78 11 -78 8 0 10
-15 5 -47 -8 -55 -9 -5513 -1 -5521 3 -3 13 1 22 9 10 8 36 24 58 34 22 11 46
26 53 33 7 6 17 12 22 12 5 0 15 6 22 12 7 7 33 23 58 36 25 12 52 27 60 32
20 13 103 60 176 100 33 18 70 41 83 51 13 11 30 19 37 19 8 0 14 3 14 8 0 4
13 13 30 20 l30 14 2 746 3 747 366 -364 366 -363 26 17 c31 20 62 13 78 -17
9 -17 7 -24 -16 -42 -24 -20 -25 -23 -11 -35 20 -16 46 -7 46 16 0 13 3 14 12
5 9 -9 8 -18 -2 -38 -14 -25 -13 -28 32 -70 26 -24 51 -44 56 -44 5 0 29 13
53 30 24 16 50 30 57 30 6 0 12 3 12 8 0 4 19 16 43 27 23 11 58 30 77 43 19
13 44 28 55 33 11 6 29 15 40 22 11 7 47 27 80 46 33 19 62 37 65 40 3 3 26
16 51 29 26 12 52 28 57 35 8 10 -154 178 -680 704 l-691 692 682 681 c374
375 681 688 681 695 0 7 -19 23 -42 35 -23 12 -53 30 -66 41 -14 10 -31 19
-38 19 -8 0 -14 4 -14 9 0 5 -8 11 -17 14 -10 4 -45 22 -78 42 -33 19 -69 39
-80 45 -11 5 -27 14 -35 20 -8 5 -62 37 -119 70 -101 59 -104 60 -124 43 -11
-10 -223 -220 -471 -468 l-451 -450 -3 1326 -2 1326 -28 14 c-15 8 -29 16 -32
19 -3 4 -30 19 -60 34 -30 16 -57 31 -60 35 -3 3 -23 15 -45 26 -22 11 -42 22
-45 25 -3 3 -16 11 -30 18 -14 7 -38 21 -55 32 -31 20 -51 31 -125 72 -25 13
-63 35 -85 49 -22 13 -58 33 -80 44 -22 11 -42 22 -45 25 -18 19 -135 80 -153
79 -12 0 -47 -16 -77 -34z m-2771 -3631 c26 -33 27 -66 4 -86 -36 -30 -54 -30
-84 3 -34 37 -37 61 -9 89 28 28 64 25 89 -6z m-139 -43 c0 -6 -4 -13 -10 -16
-5 -3 -10 1 -10 9 0 9 5 16 10 16 6 0 10 -4 10 -9z m-35 -29 c21 -14 66 -102
53 -102 -11 0 -78 90 -78 105 0 7 13 6 25 -3z m-26 -71 c12 -16 21 -37 21 -47
0 -21 -28 -54 -47 -54 -17 0 -16 -10 2 -34 17 -22 19 -36 6 -36 -11 0 -111
136 -111 151 0 6 6 9 14 6 9 -3 21 4 30 19 23 33 59 31 85 -5z m-181 -25 c-10
-7 -18 -18 -18 -24 0 -18 20 -24 35 -12 18 15 20 -1 3 -18 -9 -9 -4 -22 21
-57 39 -55 18 -64 -23 -10 -15 19 -32 35 -39 35 -16 0 -20 69 -6 86 6 8 19 14
28 14 14 -1 14 -2 -1 -14z m-47 -125 l23 -18 -35 -31 c-26 -23 -31 -34 -23
-42 17 -17 51 -3 59 23 6 19 8 20 12 4 6 -23 -24 -57 -51 -57 -25 0 -76 48
-76 72 0 20 42 68 58 68 6 0 20 -8 33 -19z m5364 -1208 c31 -34 32 -63 3 -90
-40 -37 -72 -34 -98 10 -26 42 -25 53 6 82 35 32 57 31 89 -2z m-135 -52 c0
-6 -4 -13 -10 -16 -17 -10 -11 -40 15 -75 13 -18 21 -38 18 -43 -7 -11 -46 31
-76 82 -18 30 -18 31 1 31 11 0 22 7 26 15 6 16 26 21 26 6z m-68 -93 c21 -23
28 -39 26 -61 -3 -26 -11 -35 -47 -54 -1 -1 4 -12 13 -25 18 -25 21 -53 5 -43
-6 4 -35 41 -66 82 -40 55 -52 78 -44 86 6 6 11 8 11 4 0 -3 11 5 25 18 31 32
41 31 77 -7z m-162 -7 c0 -5 -7 -11 -15 -15 -25 -9 -6 -37 21 -30 15 4 24 2
24 -5 0 -6 -4 -11 -10 -11 -18 0 -10 -25 20 -67 17 -23 26 -44 21 -47 -6 -4
-25 14 -43 38 -18 25 -38 45 -44 46 -17 0 -28 69 -13 86 13 16 39 19 39 5z"/>
<path d="M1211 4416 c-10 -11 -9 -21 3 -45 20 -38 31 -44 56 -31 24 13 26 37
4 68 -17 25 -46 29 -63 8z"/>
<path d="M1012 4278 c-18 -18 -15 -41 8 -66 25 -26 33 -27 54 -6 20 19 20 20
-1 55 -18 31 -41 37 -61 17z"/>
<path d="M805 4114 c-18 -18 -19 -30 -4 -39 10 -7 49 21 49 35 0 16 -30 18
-45 4z"/>
<path d="M6143 2903 c-8 -22 18 -67 42 -72 10 -2 24 5 31 14 11 14 10 23 -2
46 -17 33 -60 40 -71 12z"/>
<path d="M5951 2766 c-10 -11 -9 -21 3 -44 18 -35 34 -43 59 -30 23 12 22 29
-4 62 -23 29 -41 33 -58 12z"/>
<path d="M5326 7403 c-3 -4 -6 -180 -6 -392 0 -371 1 -387 19 -396 90 -46 118
-62 129 -72 7 -7 17 -13 22 -13 5 0 15 -6 22 -12 7 -7 31 -22 53 -33 22 -10
47 -24 55 -31 14 -11 80 -48 160 -90 19 -11 37 -22 38 -26 2 -5 9 -8 16 -8 8
0 24 -8 37 -19 13 -10 50 -33 83 -51 81 -45 158 -89 176 -100 8 -6 25 -14 37
-19 11 -6 24 -15 28 -20 3 -6 15 -11 26 -11 10 0 19 -4 19 -9 0 -5 14 -14 30
-21 17 -7 30 -15 30 -19 0 -3 20 -15 45 -26 25 -11 45 -23 45 -26 0 -4 12 -12
28 -18 15 -6 50 -25 77 -41 28 -17 61 -36 75 -43 14 -6 31 -17 38 -24 7 -7 18
-13 24 -13 6 0 19 -6 27 -14 9 -7 43 -28 76 -46 33 -18 77 -44 98 -57 l37 -23
0 -1568 c0 -862 -4 -1571 -8 -1577 -9 -12 -32 -27 -92 -57 -25 -13 -46 -26
-48 -30 -2 -5 -9 -8 -16 -8 -8 0 -24 -8 -37 -19 -13 -10 -51 -33 -84 -51 -33
-18 -93 -53 -133 -77 -41 -24 -75 -43 -77 -43 -5 0 -129 -73 -135 -80 -3 -3
-25 -15 -50 -28 -25 -12 -52 -27 -60 -32 -73 -46 -169 -100 -178 -100 -6 0
-12 -4 -14 -8 -3 -8 -50 -37 -153 -93 -33 -18 -87 -49 -120 -68 -33 -20 -78
-45 -100 -56 -22 -11 -46 -26 -53 -32 -7 -7 -17 -13 -22 -13 -5 0 -15 -6 -22
-13 -7 -6 -33 -22 -58 -35 -25 -12 -52 -27 -60 -32 -42 -26 -172 -100 -177
-100 -3 0 -25 -13 -50 -30 -24 -16 -48 -30 -53 -30 -5 0 -15 -6 -22 -13 -7 -7
-24 -18 -38 -24 -14 -7 -47 -26 -75 -43 -27 -16 -62 -35 -77 -41 -16 -6 -28
-14 -28 -17 0 -4 -19 -16 -43 -27 -23 -11 -44 -22 -47 -25 -6 -7 -130 -80
-135 -80 -2 0 -48 -26 -102 -58 -54 -31 -116 -66 -137 -77 -22 -11 -50 -30
-64 -42 -13 -13 -28 -21 -32 -18 -4 2 -16 -3 -27 -13 -10 -9 -38 -27 -62 -39
l-42 -22 -50 30 c-27 16 -54 29 -59 29 -6 0 -10 3 -10 8 0 4 -10 12 -22 17
l-23 10 -3 2863 c-1 1776 -6 2862 -11 2862 -6 0 -12 -4 -15 -9 -4 -5 -27 -20
-54 -32 -26 -13 -53 -29 -60 -36 -7 -7 -17 -13 -22 -13 -5 0 -15 -6 -22 -12
-7 -7 -33 -23 -58 -36 -65 -33 -154 -84 -160 -91 -3 -3 -23 -15 -45 -26 -22
-11 -41 -23 -43 -27 -2 -5 -8 -8 -14 -8 -6 0 -34 -15 -62 -33 -28 -18 -63 -39
-78 -47 l-28 -13 0 -744 c0 -639 -2 -743 -14 -736 -8 4 -222 214 -475 465
-456 453 -461 458 -488 446 -16 -7 -35 -17 -43 -24 -8 -6 -42 -26 -75 -44 -33
-18 -67 -39 -76 -46 -8 -8 -19 -14 -24 -14 -4 0 -41 -20 -82 -45 -40 -25 -76
-45 -79 -45 -4 0 -25 -12 -48 -27 -22 -16 -58 -37 -79 -48 -21 -11 -45 -27
-53 -37 -19 -20 -97 62 708 -744 l651 -652 -92 -92 c-50 -50 -91 -96 -91 -101
0 -5 -4 -9 -9 -9 -14 0 -1171 -1161 -1171 -1175 0 -7 19 -23 42 -35 23 -12 53
-30 66 -41 14 -10 30 -19 38 -19 7 0 14 -3 16 -7 2 -5 23 -18 48 -31 25 -13
59 -32 75 -42 50 -31 71 -44 122 -70 26 -14 50 -27 53 -30 3 -3 34 -23 69 -43
62 -37 64 -37 84 -20 11 10 221 219 467 466 247 246 451 447 454 447 3 0 6
-596 6 -1326 l0 -1325 33 -15 c17 -8 41 -20 52 -27 11 -6 38 -23 60 -37 22
-14 58 -34 80 -45 22 -11 42 -23 45 -27 3 -4 17 -12 30 -18 14 -5 39 -19 55
-30 17 -11 37 -23 45 -27 8 -4 59 -33 113 -65 54 -32 101 -58 104 -58 3 0 24
-13 47 -28 22 -15 48 -31 56 -35 8 -4 33 -18 55 -32 53 -32 75 -31 133 5 27
17 54 30 60 30 6 0 15 6 19 13 4 6 26 21 48 32 22 11 58 31 80 44 22 14 60 36
85 49 74 41 94 52 125 72 17 11 41 25 55 32 14 7 27 15 30 18 3 4 23 15 45 26
22 11 58 31 80 45 22 14 47 29 55 33 8 4 24 12 35 19 11 7 47 27 80 46 33 19
62 37 65 40 3 3 23 15 45 26 22 10 58 31 80 45 22 15 47 30 55 33 8 4 35 19
60 34 25 14 59 33 75 42 17 9 49 29 72 44 24 15 45 27 48 27 3 0 24 12 48 27
23 15 60 37 82 49 22 11 56 31 75 42 19 11 58 33 85 48 28 14 52 29 55 33 3 3
23 15 45 26 22 11 42 23 45 26 3 4 28 19 55 33 28 15 64 36 80 47 17 10 37 22
45 26 8 4 48 26 88 50 41 24 78 43 83 43 5 0 9 4 9 9 0 5 12 14 28 20 15 6 41
20 57 31 17 11 37 23 45 27 8 4 58 32 110 63 52 30 113 64 135 75 22 11 46 26
53 33 7 6 17 12 22 12 5 0 15 6 22 13 7 6 31 21 53 32 22 11 46 26 53 33 7 6
18 12 24 12 5 0 29 12 52 28 22 15 59 36 81 47 22 11 42 22 45 25 6 7 130 80
135 80 2 0 49 27 104 60 56 33 106 60 111 60 6 0 10 4 10 9 0 5 12 14 28 19
15 6 37 19 48 29 21 17 22 29 28 248 3 127 6 517 7 867 1 565 -1 639 -15 659
-14 21 -14 24 4 36 16 12 20 26 20 77 0 48 -4 65 -15 70 -17 6 -20 43 -4 48
14 5 13 1936 -1 1953 -5 6 -35 25 -67 41 -32 16 -60 32 -63 36 -3 4 -26 18
-50 31 -25 13 -61 34 -80 45 -19 11 -57 33 -85 48 -27 14 -52 29 -55 33 -3 3
-24 15 -47 26 -24 11 -43 23 -43 26 0 3 -19 12 -42 19 -24 8 -45 17 -48 20 -3
3 -30 18 -60 34 -30 17 -77 47 -104 68 -27 21 -74 51 -105 66 -31 15 -58 30
-61 33 -3 4 -27 19 -55 33 -27 15 -63 36 -80 47 -16 10 -37 22 -45 26 -8 3
-33 18 -55 32 -22 14 -58 34 -80 45 -22 11 -42 22 -45 26 -3 3 -16 11 -30 18
-14 6 -32 16 -40 22 -38 25 -168 100 -173 100 -3 0 -25 13 -49 28 -24 15 -61
37 -83 47 -22 11 -42 23 -45 26 -3 3 -32 21 -65 40 -33 19 -68 39 -77 44 -9 6
-41 23 -70 39 -29 16 -55 31 -58 35 -3 3 -23 15 -45 26 -22 11 -42 22 -45 25
-3 3 -16 11 -30 18 -35 18 -66 36 -81 48 -20 15 -46 24 -53 17z m2161 -3325
c-3 -7 -5 -2 -5 12 0 14 2 19 5 13 2 -7 2 -19 0 -25z"/>
<path d="M5752 2623 c4 -20 18 -26 37 -14 18 12 5 31 -20 31 -14 0 -19 -6 -17
-17z"/>
</g>
</svg>
